<svg width="55" height="56" viewBox="0 0 55 56" fill="none" xmlns="http://www.w3.org/2000/svg">
<circle cx="20.2219" cy="20.2219" r="20.2219" fill="url(#paint0_linear_1512_2351)"/>
<path d="M6.60732 26.58L11.7989 24.1501L6.65215 21.7113C6.38315 21.5857 6.21279 21.3078 6.20383 21.0119C6.20383 20.716 6.37419 20.438 6.64318 20.3035L23.9574 11.8213C24.1815 11.7137 24.4415 11.7137 24.6657 11.8303L30.6194 14.9685L36.9138 11.9917C37.129 11.893 37.3801 11.893 37.5863 11.9917L54.2459 20.1511C54.506 20.2856 54.6763 20.5456 54.6853 20.8415C54.6853 21.1374 54.5239 21.4064 54.2639 21.5409L49.3144 24.1232L54.5239 26.6159C54.7929 26.7414 54.9633 27.0194 54.9633 27.3153C54.9633 27.6112 54.7929 27.8891 54.5239 28.0147L48.346 31.0453V46.3779C48.346 46.4048 48.346 46.4317 48.346 46.4586V46.4676C48.346 46.4855 48.346 46.4945 48.3371 46.5124V46.5214C48.3371 46.5393 48.3371 46.5483 48.3281 46.5572C48.3281 46.5752 48.3191 46.5931 48.3191 46.6021C48.3191 46.62 48.3102 46.6379 48.3012 46.6559C48.2922 46.6738 48.2833 46.6917 48.2743 46.7097C48.2653 46.7276 48.2564 46.7455 48.2474 46.7635C48.2384 46.7724 48.2295 46.7904 48.2205 46.7993C48.2115 46.8083 48.2115 46.8083 48.2115 46.8173C48.1936 46.8531 48.1667 46.88 48.1308 46.9069C48.1129 46.9249 48.095 46.9428 48.077 46.9518C48.077 46.9518 48.077 46.9518 48.077 46.9607C48.077 46.9607 48.077 46.9607 48.0681 46.9697C48.0591 46.9787 48.0412 46.9966 48.0232 47.0056C48.0053 47.0235 47.9784 47.0325 47.9605 47.0504C47.9605 47.0504 47.9605 47.0504 47.9515 47.0594C47.9425 47.0594 47.9425 47.0683 47.9336 47.0683L30.987 55.3712L30.9601 55.3892C30.9512 55.3892 30.9422 55.3981 30.9332 55.3981H30.9243C30.8974 55.4161 30.8615 55.425 30.8256 55.434C30.7987 55.443 30.7718 55.4519 30.736 55.4519C30.727 55.4519 30.718 55.4519 30.7091 55.4519C30.6822 55.4519 30.6463 55.4609 30.6194 55.4609C30.5746 55.4609 30.5387 55.4609 30.4939 55.4519C30.4759 55.4519 30.467 55.443 30.449 55.443C30.4311 55.434 30.4221 55.434 30.4042 55.434C30.3952 55.434 30.3863 55.434 30.3863 55.425C30.3773 55.4161 30.3683 55.4161 30.3594 55.4161C30.3504 55.4161 30.3414 55.4161 30.3325 55.4071C30.3325 55.4071 30.3325 55.4071 30.3235 55.4071H30.3145H30.3056H30.2966C30.2787 55.4071 30.2697 55.3892 30.2518 55.3892C30.2428 55.3892 30.2428 55.3802 30.2339 55.3802C30.2249 55.3802 30.2159 55.3712 30.207 55.3712L13.2963 47.0863C13.2873 47.0863 13.2873 47.0773 13.2783 47.0773C13.2783 47.0773 13.2694 47.0773 13.2694 47.0683C13.2425 47.0594 13.2245 47.0414 13.2066 47.0235C13.1887 47.0145 13.1797 47.0056 13.1618 46.9876C13.1528 46.9876 13.1528 46.9876 13.1528 46.9787C13.1528 46.9787 13.1438 46.9787 13.1438 46.9697C13.1259 46.9518 13.108 46.9428 13.09 46.9249C13.0631 46.898 13.0362 46.8621 13.0093 46.8352C13.0004 46.8352 13.0004 46.8262 12.9914 46.8173C12.9824 46.8083 12.9735 46.7904 12.9645 46.7814C12.9555 46.7635 12.9466 46.7455 12.9376 46.7276V46.7186C12.9376 46.7097 12.9286 46.6917 12.9197 46.6828C12.9107 46.6648 12.9107 46.6469 12.9017 46.629C12.8928 46.611 12.8928 46.6021 12.8838 46.5841C12.8748 46.5662 12.8748 46.5393 12.8748 46.5214C12.8748 46.5124 12.8659 46.4945 12.8659 46.4765C12.8659 46.4496 12.8659 46.4228 12.8659 46.3869V31.0543L6.62525 27.9967C6.35626 27.8622 6.18589 27.5933 6.18589 27.2884C6.16796 26.9835 6.33832 26.7056 6.60732 26.58ZM24.2891 13.3904L8.77719 20.994L13.6191 23.2983L28.8799 15.8114L24.2891 13.3904ZM52.1837 20.8774L37.2366 13.5518L32.3858 15.8472L47.566 23.2804L52.1837 20.8774ZM47.279 29.8349L52.4078 27.3243L47.5839 25.0109L32.323 32.4889L36.9138 34.9099L47.1983 29.8797C47.2252 29.8618 47.2521 29.8528 47.279 29.8349ZM46.7948 45.8937V31.8075L37.2366 36.488C37.129 36.5417 37.0125 36.5686 36.8959 36.5686C36.7704 36.5686 36.6448 36.5417 36.5283 36.479L31.3726 33.7622L31.3547 53.4614L46.7948 45.8937ZM30.8615 31.7447C30.8077 31.7268 30.7449 31.7088 30.6911 31.6999C30.7449 31.7088 30.8077 31.7268 30.8615 31.7447ZM30.5925 31.6102L45.7996 24.1591L30.5925 16.708L15.3854 24.1591L30.5925 31.6102ZM29.8124 33.6994L24.2622 36.3176C24.047 36.4162 23.796 36.4162 23.5897 36.3176L14.3902 31.8164V45.9027L29.7945 53.4345L29.8124 33.6994ZM13.9239 29.8438C13.9419 29.8528 13.9688 29.8618 13.9867 29.8797L23.9394 34.7574L28.7992 32.471L13.6101 25.0289L8.74132 27.3153L13.9239 29.8438Z" fill="#424242"/>
<path d="M41.6326 8.92089C41.6326 8.92089 43.5556 8.37905 44.4627 7.51212C45.3697 6.60906 45.8777 4.69458 45.8777 4.69458C45.8777 4.69458 46.422 6.64518 47.329 7.51212C48.2361 8.41518 50.1228 8.92089 50.1228 8.92089C50.1228 8.92089 48.1636 9.49885 47.2928 10.3658C46.422 11.2327 45.8777 13.1472 45.8777 13.1472C45.8777 13.1472 45.3697 11.2327 44.4627 10.3297C43.5556 9.4266 41.6326 8.92089 41.6326 8.92089Z" stroke="#FF4D4D" stroke-width="1.5" stroke-miterlimit="10" stroke-linejoin="round"/>
<path d="M8.53638 11.7416C8.53638 11.7416 9.63068 11.4332 10.1469 10.9399C10.663 10.426 10.9521 9.33655 10.9521 9.33655C10.9521 9.33655 11.2618 10.4465 11.778 10.9399C12.2942 11.4538 13.3678 11.7416 13.3678 11.7416C13.3678 11.7416 12.2529 12.0704 11.7573 12.5638C11.2618 13.0571 10.9521 14.1466 10.9521 14.1466C10.9521 14.1466 10.663 13.0571 10.1469 12.5432C9.63068 12.0293 8.53638 11.7416 8.53638 11.7416Z" stroke="#FF4D4D" stroke-width="1.5" stroke-miterlimit="10" stroke-linejoin="round"/>
<defs>
<linearGradient id="paint0_linear_1512_2351" x1="20.2219" y1="0" x2="20.2219" y2="40.4439" gradientUnits="userSpaceOnUse">
<stop stop-color="#FFDFD5"/>
<stop offset="1" stop-color="#FFDFD5" stop-opacity="0"/>
</linearGradient>
</defs>
</svg>
