<svg width="49" height="94" viewBox="0 0 49 94" fill="none" xmlns="http://www.w3.org/2000/svg">
<path d="M36.154 12.876C36.154 19.9871 30.3892 25.7519 23.2781 25.7519C16.1669 25.7519 10.4021 19.9871 10.4021 12.876C10.4021 5.76476 16.1669 0 23.2781 0C30.3892 0 36.154 5.76476 36.154 12.876Z" fill="#FF4D4D"/>
<path d="M25.1858 7.22705V19.0244H22.4555V9.41799H20.0961V7.22705H25.1858Z" fill="white"/>
<path fill-rule="evenodd" clip-rule="evenodd" d="M43.5509 54.222H1.11902V51.9839H43.5509V54.222Z" fill="#383838"/>
<path fill-rule="evenodd" clip-rule="evenodd" d="M20.2056 61.1852C20.2056 60.5672 20.7066 60.0662 21.3246 60.0662H23.3452C23.9632 60.0662 24.4642 60.5672 24.4642 61.1852C24.4642 61.8032 23.9632 62.3043 23.3452 62.3043H21.3246C20.7066 62.3043 20.2056 61.8032 20.2056 61.1852Z" fill="#383838"/>
<path fill-rule="evenodd" clip-rule="evenodd" d="M9.09253 61.1852C9.09253 60.5672 9.59354 60.0662 10.2116 60.0662H12.2321C12.8502 60.0662 13.3512 60.5672 13.3512 61.1852C13.3512 61.8032 12.8502 62.3043 12.2321 62.3043H10.2116C9.59354 62.3043 9.09253 61.8032 9.09253 61.1852Z" fill="#383838"/>
<path fill-rule="evenodd" clip-rule="evenodd" d="M31.3187 61.1852C31.3187 60.5672 31.8197 60.0662 32.4378 60.0662H34.4583C35.0764 60.0662 35.5774 60.5672 35.5774 61.1852C35.5774 61.8032 35.0764 62.3043 34.4583 62.3043H32.4378C31.8197 62.3043 31.3187 61.8032 31.3187 61.1852Z" fill="#FF4D4D"/>
<path fill-rule="evenodd" clip-rule="evenodd" d="M20.2056 67.2469C20.2056 66.6288 20.7066 66.1278 21.3246 66.1278H23.3452C23.9632 66.1278 24.4642 66.6288 24.4642 67.2469C24.4642 67.8649 23.9632 68.3659 23.3452 68.3659H21.3246C20.7066 68.3659 20.2056 67.8649 20.2056 67.2469Z" fill="#383838"/>
<path fill-rule="evenodd" clip-rule="evenodd" d="M9.09253 67.2469C9.09253 66.6288 9.59354 66.1278 10.2116 66.1278H12.2321C12.8502 66.1278 13.3512 66.6288 13.3512 67.2469C13.3512 67.8649 12.8502 68.3659 12.2321 68.3659H10.2116C9.59354 68.3659 9.09253 67.8649 9.09253 67.2469Z" fill="#383838"/>
<path fill-rule="evenodd" clip-rule="evenodd" d="M20.2056 73.3085C20.2056 72.6905 20.7066 72.1895 21.3246 72.1895H23.3452C23.9632 72.1895 24.4642 72.6905 24.4642 73.3085C24.4642 73.9265 23.9632 74.4275 23.3452 74.4275H21.3246C20.7066 74.4275 20.2056 73.9265 20.2056 73.3085Z" fill="#383838"/>
<path fill-rule="evenodd" clip-rule="evenodd" d="M9.09253 73.3085C9.09253 72.6905 9.59354 72.1895 10.2116 72.1895H12.2321C12.8502 72.1895 13.3512 72.6905 13.3512 73.3085C13.3512 73.9265 12.8502 74.4275 12.2321 74.4275H10.2116C9.59354 74.4275 9.09253 73.9265 9.09253 73.3085Z" fill="#383838"/>
<path fill-rule="evenodd" clip-rule="evenodd" d="M3.13961 48.1603C2.64633 48.1603 2.2381 48.5686 2.2381 49.0619V79.3703C2.2381 79.8636 2.64633 80.2718 3.13961 80.2718H41.5303C42.0236 80.2718 42.4319 79.8636 42.4319 79.3703V49.0619C42.4319 48.5686 42.0236 48.1603 41.5303 48.1603H3.13961ZM0 49.0619C0 47.3325 1.41027 45.9222 3.13961 45.9222H41.5303C43.2597 45.9222 44.67 47.3325 44.67 49.0619V79.3703C44.67 81.0997 43.2597 82.5099 41.5303 82.5099H3.13961C1.41027 82.5099 0 81.0997 0 79.3703V49.0619Z" fill="#383838"/>
<path fill-rule="evenodd" clip-rule="evenodd" d="M11 41.881C11.6181 41.881 12.1191 42.382 12.1191 43V50.072C12.1191 50.69 11.6181 51.1911 11 51.1911C10.382 51.1911 9.88098 50.69 9.88098 50.072V43C9.88098 42.382 10.382 41.881 11 41.881Z" fill="#FF4D4D"/>
<path fill-rule="evenodd" clip-rule="evenodd" d="M33.2262 41.881C33.8443 41.881 34.3453 42.382 34.3453 43V50.072C34.3453 50.69 33.8443 51.1911 33.2262 51.1911C32.6082 51.1911 32.1072 50.69 32.1072 50.072V43C32.1072 42.382 32.6082 41.881 33.2262 41.881Z" fill="#FF4D4D"/>
<path d="M47 84.847C46.9932 84.7982 47 84.7564 47 84.7076C47 84.7076 46.932 80.2333 46.7144 78.3933C46.7076 78.24 46.6668 78.0867 46.6192 77.8567C46.4628 77.1249 45.6876 76.6928 45.0484 76.6858C44.5249 76.6789 44.1509 76.9019 43.8449 77.2643C43.7837 76.184 42.9813 75.4383 41.9954 75.4383C41.3698 75.4383 40.8394 75.7659 40.4858 76.2537C40.309 75.2989 39.5407 74.6577 38.6159 74.6647C37.8135 74.6647 37.1336 75.1525 36.848 75.9052L36.8412 69.1937C36.8412 68.0089 36.0524 67.0541 35.08 67.0541C34.1077 67.0541 33.3189 68.0159 33.3257 69.2007L33.3393 80.9581C33.0945 80.2124 32.8633 79.5572 32.6865 79.0903C32.061 77.4315 30.8438 76.414 29.8511 76.6301C28.3687 76.9576 29.4499 79.369 29.8783 81.2159C30.2318 82.7283 31.007 85.6067 31.279 86.3036C31.755 87.5163 32.265 88.5548 32.7749 89.2447C34.3593 91.7189 36.8208 92.7922 39.5339 92.7922C42.8249 92.7852 47.0068 90.7919 47 84.847Z" fill="#FFCECE"/>
<path fill-rule="evenodd" clip-rule="evenodd" d="M32.3128 69.2039C32.3051 67.6523 33.3707 66.0411 35.08 66.0411C36.786 66.0411 37.8536 67.641 37.8541 69.1926M37.8541 69.1937L37.8587 73.7506C38.0985 73.6863 38.351 73.6521 38.6121 73.6517C39.509 73.6461 40.3035 74.0389 40.8372 74.6801C41.1837 74.5193 41.5726 74.4254 41.9954 74.4254C43.0142 74.4254 43.8927 74.9411 44.3996 75.7482C44.6034 75.6968 44.8234 75.6699 45.0607 75.673C45.5873 75.679 46.1343 75.8542 46.5863 76.1631C47.045 76.4766 47.4659 76.9719 47.6097 77.645L47.6111 77.6514C47.6163 77.6769 47.6228 77.7065 47.6301 77.7394C47.6626 77.8872 47.7098 78.1012 47.7238 78.3043C47.8364 79.277 47.9076 80.8787 47.9511 82.2072C47.9734 82.8862 47.9888 83.5068 47.9986 83.9576C48.0035 84.1831 48.007 84.3663 48.0093 84.4934L48.0119 84.6401L48.0127 84.6912L48.0128 84.7076C48.0128 84.7401 48.0118 84.7679 48.011 84.7858C48.0122 84.8058 48.0128 84.8258 48.0128 84.8458C48.0165 88.0795 46.8687 90.3598 45.161 91.8168C43.4839 93.2478 41.3661 93.8012 39.536 93.805L39.5338 93.805C36.5428 93.805 33.7402 92.6091 31.94 89.819C31.3584 89.0232 30.817 87.8989 30.3361 86.6737L30.3354 86.6718C30.0331 85.8973 29.2434 82.9498 28.8919 81.4465L28.8915 81.4448C28.8122 81.1027 28.7095 80.7426 28.5984 80.3526C28.5694 80.2509 28.5398 80.1472 28.5099 80.0412C28.3716 79.5508 28.2273 79.0143 28.1477 78.5117C28.0717 78.0317 28.0292 77.4429 28.2088 76.9045C28.4207 76.2694 28.9104 75.8006 29.6325 75.641L29.6356 75.6403C30.5565 75.4399 31.4239 75.8373 32.0661 76.3884C32.1532 76.4631 32.2383 76.5423 32.3214 76.6258L32.3128 69.2064C32.3128 69.2056 32.3128 69.2047 32.3128 69.2039M33.6343 78.7328C33.6343 78.7329 33.6342 78.7327 33.6343 78.7328L32.6868 79.0901L33.6338 78.7316C33.6339 78.7319 33.6342 78.7325 33.6343 78.7328ZM48.0031 84.7072C48.0031 84.707 48.0032 84.7073 48.0031 84.7072ZM45.9868 84.703L45.9864 84.6737L45.9839 84.5301C45.9816 84.4053 45.9781 84.2245 45.9733 84.0018C45.9635 83.5562 45.9483 82.9432 45.9264 82.2736C45.882 80.9188 45.8114 79.3827 45.7085 78.5122C45.7056 78.4876 45.7036 78.4629 45.7025 78.4382C45.7012 78.4091 45.6973 78.391 45.6784 78.3036C45.6675 78.253 45.6516 78.1792 45.6282 78.0665C45.6151 78.0078 45.5698 77.9221 45.4434 77.8357C45.3093 77.7441 45.1495 77.6998 45.0374 77.6986L45.0349 77.6986C44.9279 77.6972 44.8668 77.7177 44.8239 77.7395C44.7751 77.7643 44.7071 77.8131 44.6188 77.9177C44.3512 78.2346 43.9175 78.3564 43.524 78.225C43.1306 78.0936 42.8571 77.7356 42.8336 77.3215C42.8014 76.7534 42.4203 76.4512 41.9954 76.4512C41.7511 76.4512 41.5049 76.5735 41.306 76.8481C41.0682 77.1761 40.6579 77.3309 40.2628 77.2417C39.8676 77.1525 39.5636 76.8364 39.4898 76.4381C39.3987 75.9458 39.0367 75.6744 38.6235 75.6775L38.6159 75.6776C38.2518 75.6776 37.9376 75.8887 37.795 76.2645C37.6216 76.7215 37.1466 76.9895 36.6658 76.9016C36.185 76.8137 35.8356 76.395 35.8351 75.9062L35.8283 69.1937C35.8283 68.376 35.3184 68.0669 35.08 68.0669C34.8456 68.0669 34.3339 68.3776 34.3386 69.1948L34.3386 69.1995L34.3522 80.9569C34.3528 81.4548 33.9914 81.8792 33.4998 81.9581C33.0082 82.037 32.5322 81.747 32.3769 81.2739C32.1357 80.5391 31.9095 79.8987 31.7392 79.4489L31.7388 79.4477C31.475 78.7481 31.1026 78.231 30.7468 77.9258C30.4377 77.6605 30.2213 77.614 30.1161 77.6149C30.1031 77.7131 30.1011 77.8953 30.1485 78.1948C30.2075 78.5668 30.3211 78.9999 30.4597 79.4913C30.4855 79.5828 30.5123 79.6768 30.5396 79.7724C30.6521 80.167 30.7728 80.59 30.8647 80.9861C31.2203 82.507 31.9802 85.3136 32.2222 85.9345C32.6875 87.1198 33.1589 88.0601 33.5895 88.6426C33.6029 88.6608 33.6157 88.6794 33.6279 88.6985C34.9969 90.8363 37.108 91.7789 39.5326 91.7792C40.9934 91.776 42.6115 91.3292 43.8462 90.2758C45.0441 89.2537 45.9801 87.5774 45.987 84.8916C45.9826 84.8253 45.984 84.7719 45.9852 84.7393L45.9865 84.7107L45.9868 84.703ZM45.0607 75.673C45.0611 75.673 45.0615 75.673 45.0619 75.673L45.0484 76.6858L45.0595 75.6729C45.0599 75.6729 45.0603 75.6729 45.0607 75.673Z" fill="#FF4D4D"/>
</svg>
