<svg width="56" height="55" viewBox="0 0 56 55" fill="none" xmlns="http://www.w3.org/2000/svg">
<circle cx="20.2219" cy="20.2219" r="20.2219" fill="url(#paint0_linear_1512_2303)"/>
<path d="M36.9634 37.5H21.2634H14.9634C14.4634 37.5 13.9634 37.4 13.5634 37.2C12.0634 36.6 10.9634 35.2 10.9634 33.5C10.9634 32.4 11.4634 31.4 12.1634 30.7C12.8634 30 13.8634 29.5 14.9634 29.5H21.2634H33.2634H36.9634" stroke="#424242" stroke-width="1.5" stroke-miterlimit="10" stroke-linecap="round" stroke-linejoin="round"/>
<path d="M30.1633 12.7C30.8633 12 31.8633 11.5 32.9633 11.5H54.9633" stroke="#424242" stroke-width="1.5" stroke-miterlimit="10" stroke-linecap="round" stroke-linejoin="round"/>
<path d="M36.9634 29.5L46.9634 19.5L54.9634 11.5" stroke="#424242" stroke-width="1.5" stroke-miterlimit="10" stroke-linecap="round" stroke-linejoin="round"/>
<path d="M54.9634 19.5L36.9634 37.5" stroke="#424242" stroke-width="1.5" stroke-miterlimit="10" stroke-linecap="round" stroke-linejoin="round"/>
<path d="M30.1633 12.7L12.1633 30.7" stroke="#424242" stroke-width="1.5" stroke-miterlimit="10" stroke-linecap="round" stroke-linejoin="round"/>
<path d="M31.9933 17.2219H41.9933" stroke="#FF4D4D" stroke-width="1.5" stroke-miterlimit="10" stroke-linecap="round" stroke-linejoin="round"/>
<path d="M39.4738 14.4517L27.9333 25.9921" stroke="#FF4D4D" stroke-width="1.5" stroke-linecap="round"/>
<path d="M14.9634 45.5H36.9634" stroke="#424242" stroke-width="1.5" stroke-miterlimit="10" stroke-linecap="round" stroke-linejoin="round"/>
<path d="M14.9634 37.5C13.8634 37.5 12.8634 37.9 12.1634 38.7C11.3634 39.4 10.9634 40.4 10.9634 41.5C10.9634 43.7 12.7634 45.5 14.9634 45.5" stroke="#424242" stroke-width="1.5" stroke-miterlimit="10" stroke-linecap="round" stroke-linejoin="round"/>
<path d="M54.9634 27.5L36.9634 45.5" stroke="#424242" stroke-width="1.5" stroke-miterlimit="10" stroke-linecap="round" stroke-linejoin="round"/>
<path d="M14.9634 45.5C13.8634 45.5 12.8634 45.9 12.1634 46.7C11.3634 47.4 10.9634 48.4 10.9634 49.5C10.9634 51.7 12.7634 53.5 14.9634 53.5H36.9634" stroke="#424242" stroke-width="1.5" stroke-miterlimit="10" stroke-linecap="round" stroke-linejoin="round"/>
<path d="M54.9634 35.5L36.9634 53.5" stroke="#424242" stroke-width="1.5" stroke-miterlimit="10" stroke-linecap="round" stroke-linejoin="round"/>
<path d="M36.9634 37.5C35.2634 36.2 34.9634 34.8 34.9634 33.5C34.9634 31.1 36.9634 29.5 36.9634 29.5" stroke="#424242" stroke-width="1.5" stroke-miterlimit="10" stroke-linecap="round" stroke-linejoin="round"/>
<path d="M36.9634 45.5C35.2634 44.2 34.9634 42.8 34.9634 41.5C34.9634 39.1 36.9634 37.5 36.9634 37.5" stroke="#424242" stroke-width="1.5" stroke-miterlimit="10" stroke-linecap="round" stroke-linejoin="round"/>
<path d="M36.9634 53.5C35.2634 52.2 34.9634 50.8 34.9634 49.5C34.9634 47.1 36.9634 45.5 36.9634 45.5" stroke="#424242" stroke-width="1.5" stroke-miterlimit="10" stroke-linecap="round" stroke-linejoin="round"/>
<path d="M54.9634 19.5C53.2634 18.2 52.9634 16.8 52.9634 15.5C52.9634 13.1 54.9634 11.5 54.9634 11.5" stroke="#424242" stroke-width="1.5" stroke-miterlimit="10" stroke-linecap="round" stroke-linejoin="round"/>
<path d="M54.9634 27.5C53.2634 26.2 52.9634 24.8 52.9634 23.5C52.9634 21.1 54.9634 19.5 54.9634 19.5" stroke="#424242" stroke-width="1.5" stroke-miterlimit="10" stroke-linecap="round" stroke-linejoin="round"/>
<path d="M54.9634 35.5C53.2634 34.2 52.9634 32.8 52.9634 31.5C52.9634 29.1 54.9634 27.5 54.9634 27.5" stroke="#424242" stroke-width="1.5" stroke-miterlimit="10" stroke-linecap="round" stroke-linejoin="round"/>
<defs>
<linearGradient id="paint0_linear_1512_2303" x1="20.2219" y1="0" x2="20.2219" y2="40.4439" gradientUnits="userSpaceOnUse">
<stop stop-color="#FFDFD5"/>
<stop offset="1" stop-color="#FFDFD5" stop-opacity="0"/>
</linearGradient>
</defs>
</svg>
