<svg width="49" height="91" viewBox="0 0 49 91" fill="none" xmlns="http://www.w3.org/2000/svg">
<path fill-rule="evenodd" clip-rule="evenodd" d="M12.1689 42.0004C12.4392 42.1871 12.6005 42.4947 12.6005 42.8232V89.1068C12.6005 89.4342 12.4403 89.7409 12.1714 89.9278C11.9026 90.1148 11.5593 90.1582 11.2524 90.0442L0.801228 86.1624C0.409391 86.0169 0.149414 85.643 0.149414 85.225V46.7797C0.149414 46.364 0.40659 45.9917 0.795364 45.8445L11.2465 41.888C11.5537 41.7717 11.8985 41.8137 12.1689 42.0004ZM2.14941 47.4704V84.5296L10.6005 87.6686V44.2711L2.14941 47.4704Z" fill="#383838"/>
<path fill-rule="evenodd" clip-rule="evenodd" d="M6.12146 62.979C6.12146 62.4267 6.56918 61.979 7.12146 61.979H8.86797V63.979H8.12146V67.9511H8.86797V69.9511H7.12146C6.56918 69.9511 6.12146 69.5034 6.12146 68.9511V62.979Z" fill="#383838"/>
<path fill-rule="evenodd" clip-rule="evenodd" d="M29.0237 83.6278V86.8673C29.0237 87.4196 28.576 87.8673 28.0237 87.8673H15.0796V85.8673H27.0237V83.6278H29.0237Z" fill="#383838"/>
<path fill-rule="evenodd" clip-rule="evenodd" d="M15.0796 44.0627H28.0237C28.576 44.0627 29.0237 44.5105 29.0237 45.0627V49.7953H27.0237V46.0627H15.0796V44.0627Z" fill="#383838"/>
<path d="M19.0657 70.4441V54.7674C19.0657 54.3195 19.3643 54.0209 19.8122 54.0209H40.7144C41.1623 54.0209 41.461 54.3195 41.461 54.7674V71.1906" fill="#FFCECE"/>
<path fill-rule="evenodd" clip-rule="evenodd" d="M20.0657 55.0209V71.4441H18.0657V54.7674C18.0657 54.3162 18.2204 53.8625 18.5639 53.5191C18.9073 53.1756 19.361 53.0209 19.8122 53.0209H40.7144C41.1656 53.0209 41.6194 53.1756 41.9628 53.5191C42.3062 53.8625 42.461 54.3162 42.461 54.7674V72.1906H40.461V55.0209H20.0657Z" fill="#FF4D4D"/>
<path fill-rule="evenodd" clip-rule="evenodd" d="M27.2773 53.0209C27.8296 53.0209 28.2773 53.4686 28.2773 54.0209V57.4999H32.2494V54.0209C32.2494 53.4686 32.6971 53.0209 33.2494 53.0209C33.8017 53.0209 34.2494 53.4686 34.2494 54.0209V58.4999C34.2494 59.0522 33.8017 59.4999 33.2494 59.4999H27.2773C26.7251 59.4999 26.2773 59.0522 26.2773 58.4999V54.0209C26.2773 53.4686 26.7251 53.0209 27.2773 53.0209Z" fill="#FF4D4D"/>
<path fill-rule="evenodd" clip-rule="evenodd" d="M32.9958 66.458H37.9819V68.458H32.9958V66.458Z" fill="#FF4D4D"/>
<path fill-rule="evenodd" clip-rule="evenodd" d="M20.8661 70.2993L30.0715 74.3823C30.5764 74.6063 30.8041 75.197 30.5802 75.7019C30.3563 76.2068 29.7655 76.4345 29.2606 76.2106L20.0039 72.1048C19.9664 72.0881 19.93 72.0692 19.8949 72.0481C19.2591 71.6667 18.3926 71.8722 17.9963 72.5767C17.9917 72.5849 17.987 72.5929 17.9822 72.6009C17.6061 73.2278 17.8006 74.0791 18.4817 74.4827L21.6468 75.9548L29.9275 79.6849C29.9398 79.6904 29.9519 79.6962 29.964 79.7022C30.2195 79.83 30.5689 79.8953 31.0098 79.8953H41.3116C42.0872 79.8953 42.7475 80.0921 43.3479 80.3494C43.3659 80.3571 43.3836 80.3653 43.4012 80.3741L44.1477 80.7473C44.6416 80.9943 44.8419 81.595 44.5949 82.089C44.3479 82.583 43.7472 82.7832 43.2532 82.5362L42.534 82.1766C42.1003 81.9931 41.7223 81.8953 41.3116 81.8953H31.0098C30.4118 81.8953 29.7241 81.8129 29.0893 81.5009L20.8088 77.7709L17.5988 76.2778C17.5755 76.267 17.5527 76.2553 17.5303 76.2427C15.8502 75.2976 15.3077 73.1864 16.26 71.584C17.1994 69.9294 19.2735 69.3862 20.8661 70.2993Z" fill="#383838"/>
<path fill-rule="evenodd" clip-rule="evenodd" d="M31.0845 72.1907C30.3677 72.1907 29.845 72.7134 29.845 73.4302C29.845 74.147 30.3677 74.6697 31.0845 74.6697H39.2215C39.7737 74.6697 40.2215 75.1174 40.2215 75.6697C40.2215 76.222 39.7737 76.6697 39.2215 76.6697H31.0845C29.2631 76.6697 27.845 75.2516 27.845 73.4302C27.845 71.6089 29.2631 70.1907 31.0845 70.1907H39.2961C39.8285 70.1907 40.3876 70.2754 40.8886 70.4674L47.7147 72.4707C48.2446 72.6262 48.5481 73.1819 48.3926 73.7118C48.2371 74.2417 47.6814 74.5453 47.1515 74.3897L40.2836 72.3742C40.2532 72.3652 40.2232 72.3549 40.1938 72.3431C39.9603 72.2497 39.6425 72.1907 39.2961 72.1907H31.0845Z" fill="#383838"/>
<path d="M32.5223 13.0395C32.5223 20.1507 26.7575 25.9155 19.6463 25.9155C12.5351 25.9155 6.77039 20.1507 6.77039 13.0395C6.77039 5.92834 12.5351 0.163574 19.6463 0.163574C26.7575 0.163574 32.5223 5.92834 32.5223 13.0395Z" fill="#FF4D4D"/>
<path d="M20.8276 12.1938C21.8613 12.3624 22.6534 12.75 23.204 13.3567C23.7545 13.9522 24.0298 14.6938 24.0298 15.5814C24.0298 16.2667 23.85 16.9015 23.4905 17.4858C23.1309 18.0588 22.5804 18.5195 21.8388 18.8678C21.1085 19.2161 20.2097 19.3902 19.1423 19.3902C18.3109 19.3902 17.4907 19.2835 16.6817 19.07C15.884 18.8453 15.2042 18.5307 14.6425 18.1262L15.7042 16.0364C16.1536 16.3735 16.6705 16.6375 17.2547 16.8285C17.8502 17.0083 18.4569 17.0982 19.0749 17.0982C19.7603 17.0982 20.2996 16.969 20.6928 16.7105C21.0861 16.4409 21.2827 16.0645 21.2827 15.5814C21.2827 14.6151 20.5468 14.132 19.0749 14.132H17.8277V12.3287L20.2546 9.58156H15.2323V7.39062H23.4905V9.16023L20.8276 12.1938Z" fill="white"/>
</svg>
