<svg width="48" height="89" viewBox="0 0 48 89" fill="none" xmlns="http://www.w3.org/2000/svg">
<path fill-rule="evenodd" clip-rule="evenodd" d="M4.85143 43.8033C3.83435 43.8033 2.99805 44.6397 2.99805 45.6567V77.0439C2.99805 78.061 3.83435 78.8973 4.85143 78.8973H27.2518V80.8973H4.85143C2.72978 80.8973 0.998047 79.1656 0.998047 77.0439V45.6567C0.998047 43.5351 2.72978 41.8033 4.85143 41.8033H43.3721C45.4937 41.8033 47.2254 43.5351 47.2254 45.6567V77.0439C47.2254 79.1656 45.4937 80.8973 43.3721 80.8973H40.9454V78.8973H43.3721C44.3891 78.8973 45.2254 78.061 45.2254 77.0439V45.6567C45.2254 44.6397 44.3891 43.8033 43.3721 43.8033H4.85143Z" fill="#383838"/>
<path fill-rule="evenodd" clip-rule="evenodd" d="M0.998047 50.6501C0.998047 50.0979 1.44576 49.6501 1.99805 49.6501H46.2254C46.7777 49.6501 47.2254 50.0979 47.2254 50.6501C47.2254 51.2024 46.7777 51.6501 46.2254 51.6501H1.99805C1.44576 51.6501 0.998047 51.2024 0.998047 50.6501Z" fill="#383838"/>
<path d="M5.92146 47.7968C6.51241 47.7968 6.99148 47.3177 6.99148 46.7268C6.99148 46.1358 6.51241 45.6567 5.92146 45.6567C5.3305 45.6567 4.85144 46.1358 4.85144 46.7268C4.85144 47.3177 5.3305 47.7968 5.92146 47.7968Z" fill="#383838"/>
<path d="M9.48823 47.7968C10.0792 47.7968 10.5582 47.3177 10.5582 46.7268C10.5582 46.1358 10.0792 45.6567 9.48823 45.6567C8.89728 45.6567 8.41821 46.1358 8.41821 46.7268C8.41821 47.3177 8.89728 47.7968 9.48823 47.7968Z" fill="#383838"/>
<path d="M13.0549 47.7968C13.6458 47.7968 14.1249 47.3177 14.1249 46.7268C14.1249 46.1358 13.6458 45.6567 13.0549 45.6567C12.4639 45.6567 11.9849 46.1358 11.9849 46.7268C11.9849 47.3177 12.4639 47.7968 13.0549 47.7968Z" fill="#383838"/>
<path fill-rule="evenodd" clip-rule="evenodd" d="M15.2649 55.6436C15.2649 55.0913 15.7126 54.6436 16.2649 54.6436H41.9453C42.4976 54.6436 42.9453 55.0913 42.9453 55.6436V59.9236C42.9453 60.4759 42.4976 60.9236 41.9453 60.9236H16.2649C15.7126 60.9236 15.2649 60.4759 15.2649 59.9236V55.6436ZM17.2649 56.6436V58.9236H40.9453V56.6436H17.2649Z" fill="#383838"/>
<path fill-rule="evenodd" clip-rule="evenodd" d="M15.2649 64.2037C15.2649 63.6515 15.7126 63.2037 16.2649 63.2037H41.9453C42.4976 63.2037 42.9453 63.6515 42.9453 64.2037V73.7639H40.9453V65.2037H17.2649V73.1906H27.2517V75.1906H16.2649C15.7126 75.1906 15.2649 74.7429 15.2649 74.1906V64.2037Z" fill="#383838"/>
<path fill-rule="evenodd" clip-rule="evenodd" d="M5.27808 64.2037C5.27808 63.6515 5.72579 63.2037 6.27808 63.2037H11.9848C12.5371 63.2037 12.9848 63.6515 12.9848 64.2037C12.9848 64.756 12.5371 65.2037 11.9848 65.2037H6.27808C5.72579 65.2037 5.27808 64.756 5.27808 64.2037Z" fill="#383838"/>
<path fill-rule="evenodd" clip-rule="evenodd" d="M5.27808 55.6436C5.27808 55.0913 5.72579 54.6436 6.27808 54.6436H11.9848C12.5371 54.6436 12.9848 55.0913 12.9848 55.6436C12.9848 56.1958 12.5371 56.6436 11.9848 56.6436H6.27808C5.72579 56.6436 5.27808 56.1958 5.27808 55.6436Z" fill="#383838"/>
<path d="M29.1052 67.7704V83.464L33.3853 79.8973L37.6654 87.0307L41.2321 84.8907L36.952 77.7572L41.9454 76.3305L29.1052 67.7704Z" fill="#FFCECE"/>
<path fill-rule="evenodd" clip-rule="evenodd" d="M28.6334 66.8887C28.9585 66.7147 29.3531 66.7338 29.6599 66.9383L42.5001 75.4985C42.8245 75.7147 42.9936 76.0996 42.9335 76.4848C42.8734 76.8699 42.5949 77.185 42.2202 77.2921L38.4802 78.3606L42.0896 84.3762C42.226 84.6036 42.2666 84.8759 42.2022 85.1332C42.1379 85.3905 41.974 85.6117 41.7466 85.7482L38.1799 87.8882C37.7063 88.1723 37.092 88.0188 36.8079 87.5452L33.1285 81.4129L29.7454 84.2322C29.4473 84.4806 29.0325 84.5341 28.6811 84.3696C28.3297 84.205 28.1052 83.852 28.1052 83.464V67.7704C28.1052 67.4016 28.3082 67.0627 28.6334 66.8887ZM30.1052 69.6389V81.3289L32.7451 79.129C32.9695 78.9421 33.2644 78.8625 33.5523 78.9113C33.8403 78.9601 34.0925 79.1323 34.2428 79.3828L38.0084 85.6587L39.8601 84.5477L36.0945 78.2717C35.9345 78.0051 35.9077 77.6792 36.0219 77.39C36.1361 77.1008 36.3783 76.8811 36.6773 76.7957L39.5915 75.9631L30.1052 69.6389Z" fill="#FF4D4D"/>
<path d="M37.1348 12.876C37.1348 19.9871 31.3701 25.7519 24.2589 25.7519C17.1477 25.7519 11.3829 19.9871 11.3829 12.876C11.3829 5.76476 17.1477 0 24.2589 0C31.3701 0 37.1348 5.76476 37.1348 12.876Z" fill="#FF4D4D"/>
<path d="M28.7599 16.7997V19.0244H19.8445V17.2548L24.3949 12.9572C24.878 12.4965 25.2039 12.1033 25.3724 11.7774C25.5409 11.4404 25.6252 11.1089 25.6252 10.7831C25.6252 10.3112 25.4623 9.95165 25.1364 9.70447C24.8218 9.44605 24.3556 9.31684 23.7376 9.31684C23.2208 9.31684 22.7545 9.41796 22.3388 9.6202C21.9231 9.8112 21.5748 10.1033 21.2939 10.4966L19.3052 9.21572C19.7658 8.53035 20.4006 7.99666 21.2096 7.61465C22.0186 7.2214 22.9455 7.02478 23.9904 7.02478C24.8668 7.02478 25.6308 7.17084 26.2825 7.46297C26.9454 7.74386 27.4566 8.14834 27.8161 8.67641C28.1869 9.19325 28.3723 9.80559 28.3723 10.5134C28.3723 11.1539 28.2375 11.755 27.9678 12.3167C27.6982 12.8785 27.1757 13.5189 26.4004 14.238L23.6871 16.7997H28.7599Z" fill="white"/>
</svg>
