<svg width="599" height="135" viewBox="0 0 599 135" fill="none" xmlns="http://www.w3.org/2000/svg">
<g clip-path="url(#clip0_18_70)">
<path d="M286.6 110.28C281.6 110.28 275.47 110.42 270.6 110.68V107.63C277.23 107.1 278.02 102.73 278.02 94.91V70.4C278.02 57.95 276.83 54.51 268.48 54.51V52.78C272.2 49.07 278.29 44.57 284.65 44.57C291.54 44.57 295.91 47.35 296.18 57.29C297.76 52.52 304.39 44.57 313 44.57C318.7 44.57 321.88 47.75 321.88 52.12C321.88 57.02 318.3 60.6 315.12 63.38L313.93 62.98C312.74 60.33 310.62 57.68 306.24 57.68C302.715 57.7176 299.324 59.0363 296.7 61.39V96C296.7 102.36 298.16 107.27 307.04 107.66V110.71C302 110.42 291.5 110.28 286.6 110.28Z" fill="white"/>
<path d="M179.42 111.87C171.74 111.87 165.91 109.49 163.26 103.13C162.228 99.6489 161.735 96.0302 161.8 92.4V53.05H154.11V48.81C162.06 46.95 170.11 42.71 176.37 28.41H180.61V46.29H193.2V53.05H180.48V88.69C180.405 91.138 180.58 93.5872 181 96C182.19 101.17 185.24 102.63 188.68 102.63C191.219 102.571 193.728 102.077 196.1 101.17L196.9 102.5C194.923 105.321 192.312 107.639 189.276 109.266C186.24 110.894 182.864 111.786 179.42 111.87V111.87Z" fill="white"/>
<path d="M240.63 101.54C247.12 101.54 253.21 100.35 258.51 94.91H259.18C259.769 95.3396 260.255 95.8959 260.601 96.5379C260.947 97.18 261.145 97.8914 261.18 98.62C261.18 102.47 251.25 112.27 234.29 112.27C212.96 112.27 201.43 99.42 201.43 77.96C201.43 56.5 216.25 44.3 234.27 44.3C252.29 44.3 261.69 53.58 261.69 72.79C261.69 76.23 258.91 77.16 256.26 77.16H221.26C221.55 97.7 232.41 101.54 240.63 101.54ZM240.76 70.4C243.14 70.27 244.07 68.95 244.07 67.75C244.07 53.45 239.7 49.87 234.14 49.87C229.14 49.87 222.61 52.87 221.42 70.93C228.84 70.8 235.73 70.67 240.76 70.4Z" fill="white"/>
<path d="M352 111.87C344.32 111.87 338.49 109.49 335.84 103.13C334.808 99.6489 334.315 96.0302 334.38 92.4V53.05H326.7V48.81C334.65 46.95 342.7 42.71 348.95 28.41H353.19V46.29H365.78V53.05H353.1V88.69C353.031 91.1283 353.208 93.5674 353.63 95.97C354.82 101.14 357.87 102.6 361.32 102.6C363.858 102.54 366.368 102.046 368.74 101.14L369.53 102.47C367.552 105.304 364.934 107.631 361.888 109.264C358.842 110.897 355.455 111.79 352 111.87V111.87Z" fill="white"/>
<path d="M400.79 112.27C392.45 112.27 387.79 109.89 384.1 104.72C381.98 101.94 380.92 95.97 380.92 88.42V71.2C380.985 68.2808 380.898 65.3602 380.66 62.45C379.99 57.45 378.4 54.77 371.38 54.64V52.78C375.49 49.21 381.72 44.7 389.38 44.7C396.8 44.7 398.52 50.27 399.05 53.7C399.452 56.9975 399.629 60.3185 399.58 63.64V86C399.58 91.43 400.25 95.14 401.44 97C402.76 99.12 405.28 100.45 409.44 100.45C411.95 100.45 416.59 99.65 419.37 97.27V69.87C419.397 67.1714 419.267 64.4735 418.98 61.79C418.58 57.15 414.98 54.64 409.83 54.64V52.91C414.34 48.28 421.89 44.7 427.46 44.7C432.09 44.7 436.99 46.16 437.79 54.24C438.143 58.2029 438.276 62.1823 438.19 66.16V91.34C438.19 100.34 440.31 103.92 448.52 104.19V105.91C446.61 107.814 444.335 109.312 441.831 110.314C439.327 111.316 436.646 111.801 433.95 111.74C426.79 111.74 421.36 108.03 420.3 101.54C416.3 108.56 408.08 112.27 400.79 112.27ZM400.13 37.94C405.995 29.6781 411.265 21.0096 415.9 12L427.43 18.49C421.86 24.71 409.14 35.58 402.65 39.95L400.13 37.94Z" fill="white"/>
<path d="M468.1 110.28C463.1 110.28 456.7 110.42 451.8 110.68V107.63C458.56 107.1 459.35 102.73 459.35 94.91V35.29C459.35 25.89 458.29 21.38 449.81 21.38V19.53C455.91 14.23 462.13 11.31 468.1 11.31C473.66 11.31 478.03 13.83 478.03 25.75V95.75C478.03 102.11 479.09 107.28 487.17 107.67V110.72C482.14 110.42 472.86 110.28 468.1 110.28Z" fill="white"/>
<path d="M508 110.28C503 110.28 497.54 110.28 492.5 110.68V107.63C499.39 107.1 499.92 102.33 499.92 93.85V70.93C499.92 58.35 498.86 54.64 490.38 54.64V52.78C496.58 47 502 44.7 507.44 44.7C513.27 44.7 517.25 48.41 518.18 54.11C518.463 56.8373 518.593 59.5782 518.57 62.32V94.78C518.57 103.53 520.82 107.24 527.71 107.63V110.68C522.55 110.42 513.14 110.28 508 110.28ZM507.87 34.37C502.17 34.37 498.07 30.37 498.07 24.96C498.151 22.4321 499.212 20.0349 501.029 18.2754C502.846 16.5159 505.276 15.532 507.805 15.532C510.334 15.532 512.764 16.5159 514.581 18.2754C516.398 20.0349 517.459 22.4321 517.54 24.96C517.51 30.39 513.4 34.37 507.84 34.37H507.87Z" fill="white"/>
<path d="M554.08 112.4C540.3 112.4 533.67 104.4 533.67 93.72C533.67 79.72 545.6 74.64 564.94 74.64C567.076 74.6717 569.204 74.896 571.3 75.31C571.3 74.51 571.43 73.72 571.43 72.52C571.43 69.52 571.3 64.52 570.24 61.92C568.65 57.68 563.48 55.83 558.85 55.83C550.85 55.83 543.85 58.48 540.43 64.57L538.31 63.78C538.31 56.49 543.74 44.3 565.07 44.3C580.44 44.3 589.85 50.79 589.85 66.3C589.85 70.14 589.45 84.45 589.45 90.94C589.45 99.82 591.45 103.53 598.73 103.53V104.85C596.34 107.5 591.31 111.74 584.42 111.74C578.06 111.74 574.35 108.03 572.76 102.47C570.11 107 563.48 112.4 554.08 112.4ZM571 81C569.67 80.87 568.08 80.87 566.49 80.87C557.62 80.87 552.58 83.87 552.58 92.4C552.58 99.55 558.41 101.94 561.99 101.94C563.667 102.01 565.341 101.74 566.912 101.147C568.482 100.554 569.917 99.6507 571.13 98.49C571 93.72 571 87 571 81Z" fill="white"/>
<path d="M65 101V36.15L40 51.69C40 57.79 40.21 83.41 40.31 113.18C47.6077 123.258 58.054 130.619 70 134.1L76.46 122L82.46 110.67C79.2574 109.73 76.1661 108.446 73.24 106.84C70.5469 105.347 68.0079 103.592 65.66 101.6L65 101Z" fill="#FF5B40"/>
<path d="M94.73 4.74L85.81 0C84.9836 2.77915 83.8605 5.46127 82.46 8C81.1432 10.3903 79.5886 12.6417 77.82 14.72L77.25 15.41H37H27.75H18.43C9.57282 21.8185 3.09114 30.9836 0 41.47L10.71 47.16L20.43 52.33C21.2607 49.5524 22.3836 46.8707 23.78 44.33C25.0867 41.95 26.6312 39.7085 28.39 37.64L29 37H87.08H87.85C91.1604 34.5965 94.16 31.7918 96.78 28.65C101.112 23.4412 104.331 17.4004 106.24 10.9L94.73 4.74Z" fill="#FF5B40"/>
</g>
<defs>
<clipPath id="clip0_18_70">
<rect width="598.73" height="134.1" fill="white"/>
</clipPath>
</defs>
</svg>
